<svg xmlns="http://www.w3.org/2000/svg" fill="currentColor" viewBox="0 0 24 24"><path d="M12 0C5.37 0 0 5.37 0 12c0 5.3 3.438 9.8 8.205 11.387.6.113.82-.258.82-.577 0-.285-.01-1.04-.015-2.04-3.338.724-4.042-1.61-4.042-1.61-.546-1.387-1.333-1.757-1.333-1.757-1.09-.745.083-.729.083-.729 1.205.085 1.84 1.237 1.84 1.237 1.07 1.835 2.807 1.305 3.492.998.108-.775.418-1.305.76-1.605-2.665-.3-5.467-1.332-5.467-5.93 0-1.31.47-2.38 1.236-3.22-.124-.303-.536-1.523.117-3.176 0 0 1.008-.322 3.3 1.23A11.42 11.42 0 0112 5.8c1.02.005 2.045.138 3.003.404 2.29-1.553 3.297-1.23 3.297-1.23.655 1.653.243 2.873.119 3.176.77.84 1.235 1.91 1.235 3.22 0 4.61-2.807 5.625-5.48 5.92.43.37.823 1.102.823 2.22 0 1.605-.015 2.896-.015 3.286 0 .319.216.694.825.576C20.565 21.796 24 17.296 24 12c0-6.63-5.37-12-12-12z"/></svg>